<svg width="512" height="512" viewBox="0 0 512 512" fill="none" xmlns="http://www.w3.org/2000/svg">
<g id="Frame">
<g id="Group">
<g id="Group_2">
<g id="Vector">
<mask id="path-1-outside-1_39_1131" maskUnits="userSpaceOnUse" x="128.248" y="205.943" width="198" height="112" fill="black">
<rect fill="white" x="128.248" y="205.943" width="198" height="112"/>
<path d="M320.48 225.343C320.48 221.524 318.963 217.862 316.262 215.161C313.562 212.461 309.899 210.943 306.08 210.943H147.68C143.861 210.943 140.198 212.461 137.498 215.161C134.797 217.862 133.28 221.524 133.28 225.343C133.28 229.162 134.797 232.825 137.498 235.526C140.198 238.226 143.861 239.743 147.68 239.743H306.08C307.971 239.743 309.844 239.371 311.591 238.647C313.338 237.924 314.925 236.863 316.262 235.526C317.599 234.189 318.66 232.601 319.384 230.854C320.108 229.107 320.48 227.234 320.48 225.343ZM147.648 283.663C143.829 283.663 140.166 285.18 137.466 287.881C134.765 290.582 133.248 294.244 133.248 298.063C133.248 301.882 134.765 305.545 137.466 308.246C140.166 310.946 143.829 312.463 147.648 312.463H231.632C235.451 312.463 239.114 310.946 241.814 308.246C244.515 305.545 246.032 301.882 246.032 298.063C246.032 294.244 244.515 290.582 241.814 287.881C239.114 285.18 235.451 283.663 231.632 283.663H147.648Z"/>
</mask>
<path d="M320.48 225.343C320.48 221.524 318.963 217.862 316.262 215.161C313.562 212.461 309.899 210.943 306.08 210.943H147.68C143.861 210.943 140.198 212.461 137.498 215.161C134.797 217.862 133.28 221.524 133.28 225.343C133.28 229.162 134.797 232.825 137.498 235.526C140.198 238.226 143.861 239.743 147.68 239.743H306.08C307.971 239.743 309.844 239.371 311.591 238.647C313.338 237.924 314.925 236.863 316.262 235.526C317.599 234.189 318.66 232.601 319.384 230.854C320.108 229.107 320.48 227.234 320.48 225.343ZM147.648 283.663C143.829 283.663 140.166 285.18 137.466 287.881C134.765 290.582 133.248 294.244 133.248 298.063C133.248 301.882 134.765 305.545 137.466 308.246C140.166 310.946 143.829 312.463 147.648 312.463H231.632C235.451 312.463 239.114 310.946 241.814 308.246C244.515 305.545 246.032 301.882 246.032 298.063C246.032 294.244 244.515 290.582 241.814 287.881C239.114 285.18 235.451 283.663 231.632 283.663H147.648Z" fill="#F98A17"/>
<path d="M320.48 225.343C320.48 221.524 318.963 217.862 316.262 215.161C313.562 212.461 309.899 210.943 306.08 210.943H147.68C143.861 210.943 140.198 212.461 137.498 215.161C134.797 217.862 133.28 221.524 133.28 225.343C133.28 229.162 134.797 232.825 137.498 235.526C140.198 238.226 143.861 239.743 147.68 239.743H306.08C307.971 239.743 309.844 239.371 311.591 238.647C313.338 237.924 314.925 236.863 316.262 235.526C317.599 234.189 318.66 232.601 319.384 230.854C320.108 229.107 320.48 227.234 320.48 225.343ZM147.648 283.663C143.829 283.663 140.166 285.18 137.466 287.881C134.765 290.582 133.248 294.244 133.248 298.063C133.248 301.882 134.765 305.545 137.466 308.246C140.166 310.946 143.829 312.463 147.648 312.463H231.632C235.451 312.463 239.114 310.946 241.814 308.246C244.515 305.545 246.032 301.882 246.032 298.063C246.032 294.244 244.515 290.582 241.814 287.881C239.114 285.18 235.451 283.663 231.632 283.663H147.648Z" stroke="#F98A17" stroke-width="10" mask="url(#path-1-outside-1_39_1131)"/>
</g>
<g id="Vector_2">
<mask id="path-2-outside-2_39_1131" maskUnits="userSpaceOnUse" x="12.6" y="93.1592" width="423" height="404" fill="black">
<rect fill="white" x="12.6" y="93.1592" width="423" height="404"/>
<path d="M415.36 226.143C411.541 226.143 407.878 227.66 405.178 230.361C402.477 233.061 400.96 236.724 400.96 240.543V357.007C400.947 367.485 396.779 377.529 389.371 384.938C381.962 392.347 371.917 396.514 361.44 396.527H265.12C261.996 396.524 258.957 397.541 256.464 399.423L173.296 461.967C172.586 462.537 171.72 462.879 170.811 462.947C169.903 463.016 168.996 462.808 168.208 462.351C167.394 461.962 166.712 461.342 166.248 460.568C165.785 459.794 165.559 458.901 165.6 457.999L167.2 411.439C167.262 409.509 166.936 407.587 166.242 405.785C165.547 403.983 164.499 402.339 163.157 400.95C161.816 399.561 160.21 398.455 158.433 397.698C156.657 396.941 154.747 396.549 152.816 396.543H85.92C75.4412 396.535 65.3941 392.368 57.9845 384.959C50.5749 377.549 46.4085 367.502 46.4 357.023V166.623C46.3915 156.126 50.5478 146.054 57.957 138.618C65.3661 131.182 75.4228 126.989 85.92 126.959H263.36C267.179 126.959 270.842 125.442 273.542 122.742C276.243 120.041 277.76 116.378 277.76 112.559C277.76 108.74 276.243 105.077 273.542 102.377C270.842 99.6763 267.179 98.1592 263.36 98.1592H85.92C67.7857 98.2015 50.4086 105.435 37.6007 118.273C24.7928 131.111 17.5999 148.505 17.6 166.639V357.023C17.6211 375.138 24.8254 392.505 37.6328 405.315C50.4403 418.125 67.8054 425.334 85.92 425.359H137.904L136.816 457.071C136.595 463.404 138.181 469.669 141.388 475.134C144.596 480.6 149.292 485.039 154.928 487.935C159.727 490.45 165.062 491.768 170.48 491.775C177.568 491.775 184.592 489.487 190.576 485.023L269.92 425.359H361.424C379.539 425.334 396.904 418.125 409.711 405.315C422.519 392.505 429.723 375.138 429.744 357.023V240.559C429.748 238.668 429.379 236.794 428.658 235.045C427.937 233.296 426.878 231.707 425.542 230.367C424.206 229.028 422.619 227.966 420.872 227.241C419.125 226.516 417.252 226.143 415.36 226.143Z"/>
</mask>
<path d="M415.36 226.143C411.541 226.143 407.878 227.66 405.178 230.361C402.477 233.061 400.96 236.724 400.96 240.543V357.007C400.947 367.485 396.779 377.529 389.371 384.938C381.962 392.347 371.917 396.514 361.44 396.527H265.12C261.996 396.524 258.957 397.541 256.464 399.423L173.296 461.967C172.586 462.537 171.72 462.879 170.811 462.947C169.903 463.016 168.996 462.808 168.208 462.351C167.394 461.962 166.712 461.342 166.248 460.568C165.785 459.794 165.559 458.901 165.6 457.999L167.2 411.439C167.262 409.509 166.936 407.587 166.242 405.785C165.547 403.983 164.499 402.339 163.157 400.95C161.816 399.561 160.21 398.455 158.433 397.698C156.657 396.941 154.747 396.549 152.816 396.543H85.92C75.4412 396.535 65.3941 392.368 57.9845 384.959C50.5749 377.549 46.4085 367.502 46.4 357.023V166.623C46.3915 156.126 50.5478 146.054 57.957 138.618C65.3661 131.182 75.4228 126.989 85.92 126.959H263.36C267.179 126.959 270.842 125.442 273.542 122.742C276.243 120.041 277.76 116.378 277.76 112.559C277.76 108.74 276.243 105.077 273.542 102.377C270.842 99.6763 267.179 98.1592 263.36 98.1592H85.92C67.7857 98.2015 50.4086 105.435 37.6007 118.273C24.7928 131.111 17.5999 148.505 17.6 166.639V357.023C17.6211 375.138 24.8254 392.505 37.6328 405.315C50.4403 418.125 67.8054 425.334 85.92 425.359H137.904L136.816 457.071C136.595 463.404 138.181 469.669 141.388 475.134C144.596 480.6 149.292 485.039 154.928 487.935C159.727 490.45 165.062 491.768 170.48 491.775C177.568 491.775 184.592 489.487 190.576 485.023L269.92 425.359H361.424C379.539 425.334 396.904 418.125 409.711 405.315C422.519 392.505 429.723 375.138 429.744 357.023V240.559C429.748 238.668 429.379 236.794 428.658 235.045C427.937 233.296 426.878 231.707 425.542 230.367C424.206 229.028 422.619 227.966 420.872 227.241C419.125 226.516 417.252 226.143 415.36 226.143Z" fill="#F98A17"/>
<path d="M415.36 226.143C411.541 226.143 407.878 227.66 405.178 230.361C402.477 233.061 400.96 236.724 400.96 240.543V357.007C400.947 367.485 396.779 377.529 389.371 384.938C381.962 392.347 371.917 396.514 361.44 396.527H265.12C261.996 396.524 258.957 397.541 256.464 399.423L173.296 461.967C172.586 462.537 171.72 462.879 170.811 462.947C169.903 463.016 168.996 462.808 168.208 462.351C167.394 461.962 166.712 461.342 166.248 460.568C165.785 459.794 165.559 458.901 165.6 457.999L167.2 411.439C167.262 409.509 166.936 407.587 166.242 405.785C165.547 403.983 164.499 402.339 163.157 400.95C161.816 399.561 160.21 398.455 158.433 397.698C156.657 396.941 154.747 396.549 152.816 396.543H85.92C75.4412 396.535 65.3941 392.368 57.9845 384.959C50.5749 377.549 46.4085 367.502 46.4 357.023V166.623C46.3915 156.126 50.5478 146.054 57.957 138.618C65.3661 131.182 75.4228 126.989 85.92 126.959H263.36C267.179 126.959 270.842 125.442 273.542 122.742C276.243 120.041 277.76 116.378 277.76 112.559C277.76 108.74 276.243 105.077 273.542 102.377C270.842 99.6763 267.179 98.1592 263.36 98.1592H85.92C67.7857 98.2015 50.4086 105.435 37.6007 118.273C24.7928 131.111 17.5999 148.505 17.6 166.639V357.023C17.6211 375.138 24.8254 392.505 37.6328 405.315C50.4403 418.125 67.8054 425.334 85.92 425.359H137.904L136.816 457.071C136.595 463.404 138.181 469.669 141.388 475.134C144.596 480.6 149.292 485.039 154.928 487.935C159.727 490.45 165.062 491.768 170.48 491.775C177.568 491.775 184.592 489.487 190.576 485.023L269.92 425.359H361.424C379.539 425.334 396.904 418.125 409.711 405.315C422.519 392.505 429.723 375.138 429.744 357.023V240.559C429.748 238.668 429.379 236.794 428.658 235.045C427.937 233.296 426.878 231.707 425.542 230.367C424.206 229.028 422.619 227.966 420.872 227.241C419.125 226.516 417.252 226.143 415.36 226.143Z" stroke="#F98A17" stroke-width="10" mask="url(#path-2-outside-2_39_1131)"/>
</g>
</g>
<g id="Vector_3">
<mask id="path-3-outside-3_39_1131" maskUnits="userSpaceOnUse" x="297.801" y="15.9316" width="202" height="194" fill="black">
<rect fill="white" x="297.801" y="15.9316" width="202" height="194"/>
<path d="M493.2 88.9756C491.943 85.0643 489.706 81.5402 486.7 78.7393C483.695 75.9384 480.022 73.9541 476.032 72.9756L439.232 63.8076L419.136 31.6476C410.224 17.3436 386.96 17.3756 378.064 31.6476L357.968 63.8076L321.168 72.9756C313.024 74.9916 306.592 80.9756 304 88.9756C301.408 96.9756 303.072 105.6 308.48 112.048L332.864 141.072L330.208 178.896C329.907 182.995 330.66 187.102 332.397 190.828C334.133 194.553 336.795 197.771 340.128 200.176C343.447 202.601 347.332 204.137 351.412 204.638C355.492 205.139 359.632 204.589 363.44 203.04L398.608 188.832L433.76 203.04C441.552 206.208 450.256 205.12 457.072 200.192C463.872 195.248 467.584 187.296 467.008 178.896L464.352 141.072L488.736 112.032C494.128 105.6 495.808 96.9756 493.2 88.9756ZM438.544 127.008C436.139 129.874 434.945 133.564 435.216 137.296L437.776 173.616L404.016 159.968C400.559 158.562 396.689 158.562 393.232 159.968L359.488 173.616L362.032 137.296C362.284 133.566 361.093 129.883 358.704 127.008L335.296 99.1356L370.624 90.3196C374.241 89.4162 377.367 87.1449 379.344 83.9836L398.64 53.1196L417.936 83.9836C419.92 87.1516 423.04 89.4236 426.656 90.3196L461.984 99.1356L438.544 127.008Z"/>
</mask>
<path d="M493.2 88.9756C491.943 85.0643 489.706 81.5402 486.7 78.7393C483.695 75.9384 480.022 73.9541 476.032 72.9756L439.232 63.8076L419.136 31.6476C410.224 17.3436 386.96 17.3756 378.064 31.6476L357.968 63.8076L321.168 72.9756C313.024 74.9916 306.592 80.9756 304 88.9756C301.408 96.9756 303.072 105.6 308.48 112.048L332.864 141.072L330.208 178.896C329.907 182.995 330.66 187.102 332.397 190.828C334.133 194.553 336.795 197.771 340.128 200.176C343.447 202.601 347.332 204.137 351.412 204.638C355.492 205.139 359.632 204.589 363.44 203.04L398.608 188.832L433.76 203.04C441.552 206.208 450.256 205.12 457.072 200.192C463.872 195.248 467.584 187.296 467.008 178.896L464.352 141.072L488.736 112.032C494.128 105.6 495.808 96.9756 493.2 88.9756ZM438.544 127.008C436.139 129.874 434.945 133.564 435.216 137.296L437.776 173.616L404.016 159.968C400.559 158.562 396.689 158.562 393.232 159.968L359.488 173.616L362.032 137.296C362.284 133.566 361.093 129.883 358.704 127.008L335.296 99.1356L370.624 90.3196C374.241 89.4162 377.367 87.1449 379.344 83.9836L398.64 53.1196L417.936 83.9836C419.92 87.1516 423.04 89.4236 426.656 90.3196L461.984 99.1356L438.544 127.008Z" fill="#6621BA"/>
<path d="M493.2 88.9756C491.943 85.0643 489.706 81.5402 486.7 78.7393C483.695 75.9384 480.022 73.9541 476.032 72.9756L439.232 63.8076L419.136 31.6476C410.224 17.3436 386.96 17.3756 378.064 31.6476L357.968 63.8076L321.168 72.9756C313.024 74.9916 306.592 80.9756 304 88.9756C301.408 96.9756 303.072 105.6 308.48 112.048L332.864 141.072L330.208 178.896C329.907 182.995 330.66 187.102 332.397 190.828C334.133 194.553 336.795 197.771 340.128 200.176C343.447 202.601 347.332 204.137 351.412 204.638C355.492 205.139 359.632 204.589 363.44 203.04L398.608 188.832L433.76 203.04C441.552 206.208 450.256 205.12 457.072 200.192C463.872 195.248 467.584 187.296 467.008 178.896L464.352 141.072L488.736 112.032C494.128 105.6 495.808 96.9756 493.2 88.9756ZM438.544 127.008C436.139 129.874 434.945 133.564 435.216 137.296L437.776 173.616L404.016 159.968C400.559 158.562 396.689 158.562 393.232 159.968L359.488 173.616L362.032 137.296C362.284 133.566 361.093 129.883 358.704 127.008L335.296 99.1356L370.624 90.3196C374.241 89.4162 377.367 87.1449 379.344 83.9836L398.64 53.1196L417.936 83.9836C419.92 87.1516 423.04 89.4236 426.656 90.3196L461.984 99.1356L438.544 127.008Z" stroke="#6621BA" stroke-width="10" mask="url(#path-3-outside-3_39_1131)"/>
</g>
</g>
</g>
</svg>
